<svg xmlns="http://www.w3.org/2000/svg" viewBox="0 0 775.03 266.11"><defs><style>.cls-1,.cls-3{fill:none;stroke:#fff;}.cls-2{fill:#fff;}.cls-3{stroke-miterlimit:10;}</style></defs><title>Ресурс 13</title><g id="Слой_2" data-name="Слой 2"><g id="Слой_1-2" data-name="Слой 1"><g id="Слой_2-2" data-name="Слой 2"><path class="cls-1" d="M160.53,171.08h33v35.53h-33v59H116.29v-59H1.78l-1.27-27L114.84.5h45.7Zm-113.6,0h69.36V60.39L113,66.22Z"/><path class="cls-1" d="M741.53,171.08h33v35.53h-33v59H697.29v-59H582.78l-1.27-27L695.84.5h45.7Zm-113.6,0h69.36V60.39L694,66.22Z"/><path class="cls-2" d="M297.61,96.78c33.84-22.17,71.26-35.17,134.69-24.17,3.5-2,5.42-3.93,6.32-8.1-15.84-5.7-33-7.71-55.22-7.35-20,.56-55.88,8-75.07,19.32l5.85-7.3c13.42-7.84,48.38-18.31,74.57-18.84,18.49-.34,28.09.7,50,6.61-1.91-3.77-6.49-5.64-13.12-8.63-21.27-9.54-61-10.43-93.54,3.9a99.9,99.9,0,0,1,13.47-7.61c10.72-4.88,28.27-9.65,50.25-9.27,17.54.28,38.35,6.4,51.12,19a18.74,18.74,0,0,1,3.88,7.29c10.12,5.1,16,9.89,19.27,15.56a15.73,15.73,0,0,1,1.3,9.6,25.06,25.06,0,0,1,8.27,7.42,17.37,17.37,0,0,1,2.88,7.31c.45,3.17.79,6.72-2.53,10.88,3.47,1.68,6.19,6.46,6.61,8.58,1.59,7.62-3.29,15-9.77,20.8-7.42,6.53-23.81,14.25-37.16,17.66-26.53,6.71-49.92,9.55-68.53,13a149,149,0,0,0,38.26,4.69c39.53,0,74.52-18.71,74.52-18.71s-.8,2.46-1.56,4.61c-25.15,15.18-65.17,21.61-82.22,20.82A181.75,181.75,0,0,1,354,176.06a82.29,82.29,0,0,0-12.81,4.38c21.73,9.87,38.12,12.1,56.71,13.44,18.92,1.41,50.27-3.16,76.76-12.74-1.2,1.19-1.83,3.12-3.07,4.24-13.54,7.09-42.21,14.26-56.6,14.85s-31.82.06-47-2.82c-13.13-2.54-23.77-6.69-34.92-11.57a8.3,8.3,0,0,0-3.42,5.56c43.56,22.77,84.41,23.27,130.83,8.86l-4.29,4.09c-51.12,20.7-91.09,12.66-122-2.25a23.75,23.75,0,0,1-3.1-1.49c2.84,5,26.49,22.24,52.88,24.41,18.22,1.5,40.45-1.63,53.63-6.89l-7.7,4c-6.41,3.12-23.31,10.23-47,8.67-31.52-2.12-49.26-16-57.22-23.35-3.68-3.41-5.43-7.38-6.54-12.22-7.13-3.75-11.62-7.6-15.32-13.39-2.2-3.4-1.76-7.2-1.19-10.41a12.6,12.6,0,0,1,.82-2.86c-3.43-2.48-6.89-5.14-8.38-7.81-3.11-5.62-1.19-10.45,1-14.19a21.58,21.58,0,0,1-4.38-6.4,19.41,19.41,0,0,1-.75-7.79c.59-4.73,3.12-9,6.36-12.8,6.91-7.94,17.72-14.12,36.3-20.27,18.13-6,25.46-6.9,39.15-10.08,16-3.72,35.11-4.9,51.14-10.5-44.62-7.84-91-.73-128.75,25.28l2.56-7.24m152-27.52c-.55,2.21-2.92,4.73-4.55,6.46a141.28,141.28,0,0,1,14.37,4.9c-.56-4.35-5.59-8.52-9.91-11.35ZM312.15,158.4a80.31,80.31,0,0,1-7.24-4.39c-1.31,2.81,1.13,5.92,3.73,7.43C309.73,160.34,311,159.43,312.15,158.4Zm150.4-58.31a63.41,63.41,0,0,1,8.91,4.73c2-3.85.78-6.36-3.45-9.91a35.23,35.23,0,0,1-5.48,5.18ZM453,105.94c-6.51,3-15.87,6.14-29.24,9.51-11,2.75-37.71,6.56-66.43,12.83-9.13,2-33.73,7.79-45.85,18.09,3.38,2.71,5.46,3.38,9.23,5.47,5-3.21,11.79-6.25,21.93-8.94,17.65-4.71,30.78-6.76,46.64-9.26S434.64,125,451,119.11a52.35,52.35,0,0,0,14-7.27c-1.17-1.23-11.71-6.36-12.06-5.9ZM328.84,174.61a61.15,61.15,0,0,1,8.69-4.2c-4.6-1.92-9.3-4-14.09-6.19a34.57,34.57,0,0,0-5.63,4.24C321.47,170.53,325.15,172.61,328.84,174.61Zm-15.15,1.5c-.07,2.94,1.71,5.57,5.66,8.79a12.82,12.82,0,0,1,2.36-4.3c-2.74-1.42-5.43-3-8-4.54Zm22.26-54.51c32.29-9.46,66.2-12.39,100.52-21.5-13.41-3.62-20.75-5.15-34.93-3.5a391.25,391.25,0,0,0-62.62,12.64c-7.59,2.3-47.62,13.6-36.07,29.47,0,.17,6.86-9.46,33.11-17.16Zm121.11-33A128.26,128.26,0,0,0,438.24,82a44,44,0,0,1-12,6.71c8.72,1.55,15.26,4,22.58,6.06,1.28.59,7.28-5,8.19-6.29Zm15.92,31c-1,.84-2.06,1.66-3.26,2.56-7.31,5.64-18.86,10.14-34.87,14.41-33.24,9-57.36,10.27-84.81,17a115.26,115.26,0,0,0-16.1,5.21,176,176,0,0,0,16.35,7.14,239.26,239.26,0,0,1,32.64-7.37c6.15-1.06,25.09-4.36,38.79-7.26C446.41,146,482.62,134.61,473,119.61Z"/><circle class="cls-3" cx="388.65" cy="133.11" r="131.5"/></g></g></g></svg>