<svg xmlns="http://www.w3.org/2000/svg" viewBox="0 0 30.41 30.34" width="600" height="600">
    <defs>
        <style>.cls-1{fill:#fff;fill-rule:evenodd;}</style>
    </defs>
    <title>Ресурс 13</title>
    <g id="Слой_2" data-name="Слой 2">
        <path class="cls-1"
              d="M1.06,9.53c5.25-3.44,11-5.44,20.88-3.75a1.71,1.71,0,0,0,1-1.25,23.5,23.5,0,0,0-8.56-1.14c-3.1.09-8.66,1.24-11.64,3l.91-1.13A29.91,29.91,0,0,1,15.19,2.33a23,23,0,0,1,7.76,1c-.3-.58-1-.87-2-1.34C17.62.54,11.46.4,6.41,2.62A15.48,15.48,0,0,1,8.49,1.44,18.5,18.5,0,0,1,16.28,0a12,12,0,0,1,7.92,3,2.91,2.91,0,0,1,.6,1.13,6.7,6.7,0,0,1,3,2.41A2.44,2.44,0,0,1,28,8a3.88,3.88,0,0,1,1.28,1.15,2.69,2.69,0,0,1,.45,1.13A2,2,0,0,1,29.34,12a2.31,2.31,0,0,1,1,1.33,3.6,3.6,0,0,1-1.51,3.22,16.39,16.39,0,0,1-5.76,2.74c-4.11,1-7.74,1.47-10.63,2a23.1,23.1,0,0,0,5.93.73,27.61,27.61,0,0,0,11.55-2.9s-.12.38-.24.71A27.61,27.61,0,0,1,17,23a28.17,28.17,0,0,1-7.16-1.2,12.76,12.76,0,0,0-2,.68,23.27,23.27,0,0,0,8.79,2.08,32.61,32.61,0,0,0,11.9-2c-.19.18-.28.48-.48.66a27.41,27.41,0,0,1-8.77,2.3A33.72,33.72,0,0,1,12,25.13a24.69,24.69,0,0,1-5.41-1.79A1.29,1.29,0,0,0,6,24.2c6.75,3.53,13.08,3.61,20.28,1.37l-.66.63c-7.92,3.21-14.12,2-18.91-.35a3.68,3.68,0,0,1-.49-.24c.44.77,4.11,3.45,8.2,3.78a20.71,20.71,0,0,0,8.31-1.07L21.56,29a14.53,14.53,0,0,1-7.29,1.34,14,14,0,0,1-8.87-3.62,3.46,3.46,0,0,1-1-1.89A5.73,5.73,0,0,1,2,22.71a2.15,2.15,0,0,1-.18-1.61A2,2,0,0,1,2,20.66a4.64,4.64,0,0,1-1.3-1.21,2.09,2.09,0,0,1,.15-2.2,3.35,3.35,0,0,1-.68-1A3,3,0,0,1,0,15a3.82,3.82,0,0,1,1-2c1.07-1.23,2.75-2.19,5.63-3.14a51.62,51.62,0,0,1,6.07-1.56c2.48-.58,5.44-.76,7.93-1.63a26.76,26.76,0,0,0-20,3.92l.4-1.12M24.62,5.27a2.82,2.82,0,0,1-.7,1A21.9,21.9,0,0,1,26.15,7C26.07,6.35,25.29,5.7,24.62,5.27ZM3.31,19.08a12.45,12.45,0,0,1-1.12-.68c-.2.44.18.92.58,1.15C2.94,19.38,3.14,19.24,3.31,19.08Zm23.31-9a9.83,9.83,0,0,1,1.38.73c.31-.6.12-1-.53-1.54A5.46,5.46,0,0,1,26.63,10ZM25.15,11a26.86,26.86,0,0,1-4.53,1.47c-1.7.43-5.85,1-10.3,2-1.42.3-5.23,1.21-7.11,2.8a8.16,8.16,0,0,0,1.43.85A11.87,11.87,0,0,1,8,16.68a64.37,64.37,0,0,1,7.23-1.44A65.33,65.33,0,0,0,24.84,13,8.12,8.12,0,0,0,27,11.86,7.58,7.58,0,0,0,25.15,11ZM5.9,21.59a9.48,9.48,0,0,1,1.35-.65c-.71-.3-1.44-.62-2.18-1a5.36,5.36,0,0,0-.87.66C4.76,21,5.32,21.28,5.9,21.59Zm-2.35.23c0,.46.27.86.88,1.36a2,2,0,0,1,.37-.67C4.37,22.3,4,22.07,3.55,21.82ZM7,13.37C12,11.9,17.27,11.45,22.59,10a12.13,12.13,0,0,0-5.41-.54,60.65,60.65,0,0,0-9.71,2C6.29,11.81.09,13.56,1.88,16,1.88,16.06,2.94,14.56,7,13.37ZM25.78,8.25a19.88,19.88,0,0,0-2.92-1,6.82,6.82,0,0,1-1.85,1,31.38,31.38,0,0,1,3.5.94C24.71,9.32,25.63,8.45,25.78,8.25Zm2.47,4.82-.51.4a15.81,15.81,0,0,1-5.41,2.23c-5.15,1.39-8.89,1.59-13.15,2.63a17.87,17.87,0,0,0-2.5.81c.8.4,1.66.77,2.53,1.11a37.09,37.09,0,0,1,5.06-1.14c1-.16,3.89-.68,6-1.12C24.13,17.16,29.74,15.39,28.25,13.07Z"/>
    </g>
</svg>