<svg xmlns="http://www.w3.org/2000/svg" viewBox="0 0 41.04 41.04"><defs><style>.cls-1{fill:#fff;fill-rule:evenodd;}</style></defs><title>Ресурс 13</title><g id="Слой_2" data-name="Слой 2"><path class="cls-1" d="M40.69,20.52A20.17,20.17,0,1,1,20.52.35,20.17,20.17,0,0,1,40.69,20.52"/><path class="cls-1" d="M0,20.52A20.52,20.52,0,1,0,20.52,0,20.54,20.54,0,0,0,0,20.52m.71,0A19.81,19.81,0,1,1,20.52,40.33,19.84,19.84,0,0,1,.71,20.52Z"/><path class="cls-1" d="M6.39,14.89c5.25-3.44,11-5.44,20.88-3.75a1.71,1.71,0,0,0,1-1.25,23.5,23.5,0,0,0-8.56-1.14c-3.1.09-8.66,1.24-11.64,3L9,10.62A29.91,29.91,0,0,1,20.52,7.7a23,23,0,0,1,7.76,1c-.3-.58-1-.87-2-1.34-3.3-1.48-9.45-1.62-14.5.6a15.48,15.48,0,0,1,2.08-1.18,18.5,18.5,0,0,1,7.79-1.44,12,12,0,0,1,7.92,3,2.91,2.91,0,0,1,.6,1.13,6.7,6.7,0,0,1,3,2.41,2.44,2.44,0,0,1,.2,1.49,3.88,3.88,0,0,1,1.28,1.15,2.69,2.69,0,0,1,.45,1.13,2,2,0,0,1-.39,1.69,2.31,2.31,0,0,1,1,1.33,3.6,3.6,0,0,1-1.51,3.22,16.39,16.39,0,0,1-5.76,2.74c-4.11,1-7.74,1.47-10.63,2a23.1,23.1,0,0,0,5.93.73,27.61,27.61,0,0,0,11.55-2.9s-.12.38-.24.71a27.61,27.61,0,0,1-12.74,3.23,28.17,28.17,0,0,1-7.16-1.2,12.76,12.76,0,0,0-2,.68,23.27,23.27,0,0,0,8.79,2.08,32.61,32.61,0,0,0,11.9-2c-.19.18-.28.48-.48.66a27.41,27.41,0,0,1-8.77,2.3,33.72,33.72,0,0,1-7.28-.44,24.69,24.69,0,0,1-5.41-1.79,1.29,1.29,0,0,0-.53.86c6.75,3.53,13.08,3.61,20.28,1.37l-.66.63c-7.92,3.21-14.12,2-18.91-.35a3.68,3.68,0,0,1-.49-.24c.44.77,4.11,3.45,8.2,3.78a20.71,20.71,0,0,0,8.31-1.07l-1.19.62a14.53,14.53,0,0,1-7.29,1.34A14,14,0,0,1,10.74,32a3.46,3.46,0,0,1-1-1.89,5.73,5.73,0,0,1-2.37-2.08,2.15,2.15,0,0,1-.18-1.61A2,2,0,0,1,7.29,26,4.64,4.64,0,0,1,6,24.81a2.09,2.09,0,0,1,.15-2.2,3.35,3.35,0,0,1-.68-1,3,3,0,0,1-.12-1.21,3.82,3.82,0,0,1,1-2C7.4,17.2,9.08,16.24,12,15.29A51.62,51.62,0,0,1,18,13.73C20.5,13.15,23.47,13,26,12.1A26.76,26.76,0,0,0,6,16l.4-1.12m23.56-4.27a2.82,2.82,0,0,1-.7,1,21.9,21.9,0,0,1,2.24.75C31.4,11.71,30.62,11.07,29.95,10.63ZM8.64,24.45a12.45,12.45,0,0,1-1.12-.68c-.2.44.18.92.58,1.15C8.27,24.75,8.47,24.61,8.64,24.45Zm23.31-9a9.83,9.83,0,0,1,1.38.73c.31-.6.12-1-.53-1.54A5.46,5.46,0,0,1,32,15.41Zm-1.48.91a26.86,26.86,0,0,1-4.53,1.47c-1.7.43-5.85,1-10.3,2-1.42.3-5.23,1.21-7.11,2.8a8.16,8.16,0,0,0,1.43.85A11.87,11.87,0,0,1,13.37,22a64.37,64.37,0,0,1,7.23-1.44,65.33,65.33,0,0,0,9.57-2.25,8.12,8.12,0,0,0,2.17-1.13A7.58,7.58,0,0,0,30.48,16.32ZM11.23,27a9.48,9.48,0,0,1,1.35-.65c-.71-.3-1.44-.62-2.18-1a5.36,5.36,0,0,0-.87.66C10.09,26.33,10.65,26.65,11.23,27Zm-2.35.23c0,.46.27.86.88,1.36a2,2,0,0,1,.37-.67C9.7,27.67,9.29,27.43,8.88,27.18Zm3.45-8.45c5-1.47,10.26-1.92,15.58-3.33a12.13,12.13,0,0,0-5.41-.54,60.65,60.65,0,0,0-9.71,2c-1.18.36-7.38,2.11-5.59,4.57C7.21,21.42,8.27,19.93,12.34,18.74Zm18.77-5.12a19.88,19.88,0,0,0-2.92-1,6.82,6.82,0,0,1-1.85,1,31.38,31.38,0,0,1,3.5.94C30,14.68,31,13.82,31.11,13.62Zm2.47,4.82-.51.4a15.81,15.81,0,0,1-5.41,2.23c-5.15,1.39-8.89,1.59-13.15,2.63a17.87,17.87,0,0,0-2.5.81c.8.4,1.66.77,2.53,1.11a37.09,37.09,0,0,1,5.06-1.14c1-.16,3.89-.68,6-1.12C29.46,22.52,35.07,20.75,33.58,18.43Z"/></g></svg>