<svg xmlns="http://www.w3.org/2000/svg" viewBox="0 0 166.78 81.89"><defs><style>.cls-1{fill:#fff;}.cls-1,.cls-2{fill-rule:evenodd;}.cls-2,.cls-3{fill:#004379;}</style></defs><title>Ресурс 13</title><g id="Слой_2" data-name="Слой 2"><g id="Layer_1" data-name="Layer 1"><path class="cls-1" d="M107.12,24.14A23.73,23.73,0,1,1,83.39.41a23.73,23.73,0,0,1,23.73,23.73"/><path class="cls-2" d="M59.25,24.14A24.14,24.14,0,1,0,83.39,0,24.17,24.17,0,0,0,59.25,24.14m.83,0a23.31,23.31,0,1,1,23.31,23.3A23.34,23.34,0,0,1,60.08,24.14Z"/><path class="cls-2" d="M66.77,17.52c6.17-4,13-6.4,24.56-4.41a2,2,0,0,0,1.15-1.48A27.61,27.61,0,0,0,82.41,10.3c-3.64.1-10.19,1.45-13.69,3.52l1.06-1.33a35.15,35.15,0,0,1,13.6-3.43,27,27,0,0,1,9.12,1.21c-.35-.69-1.18-1-2.39-1.58C86.25,6.95,79,6.79,73.07,9.4A17.91,17.91,0,0,1,75.51,8a21.76,21.76,0,0,1,9.16-1.69c3.2.05,7,1.17,9.32,3.47a3.43,3.43,0,0,1,.71,1.33A7.9,7.9,0,0,1,98.22,14a2.87,2.87,0,0,1,.24,1.75A4.59,4.59,0,0,1,100,17.06a3.17,3.17,0,0,1,.53,1.33,2.31,2.31,0,0,1-.46,2,2.71,2.71,0,0,1,1.2,1.56c.29,1.39-.6,2.74-1.78,3.79A19.26,19.26,0,0,1,92.68,29c-4.84,1.22-9.11,1.73-12.5,2.36a27.08,27.08,0,0,0,7,.86,32.49,32.49,0,0,0,13.59-3.41s-.15.45-.29.84c-4.58,2.77-11.88,3.94-15,3.8A33.21,33.21,0,0,1,77,32a15,15,0,0,0-2.34.8A27.34,27.34,0,0,0,85,35.23a38.37,38.37,0,0,0,14-2.32c-.22.22-.33.57-.56.78a32.31,32.31,0,0,1-10.32,2.71,39.63,39.63,0,0,1-8.57-.51,29.15,29.15,0,0,1-6.37-2.11,1.51,1.51,0,0,0-.62,1C80.55,38.93,88,39,96.47,36.39l-.78.75c-9.32,3.77-16.61,2.31-22.25-.41a4.29,4.29,0,0,1-.57-.28c.52.91,4.83,4.06,9.64,4.45a24.35,24.35,0,0,0,9.78-1.26l-1.4.74A17.12,17.12,0,0,1,82.31,42a16.48,16.48,0,0,1-10.44-4.26,4.07,4.07,0,0,1-1.19-2.23A6.75,6.75,0,0,1,67.89,33a2.54,2.54,0,0,1-.22-1.9,2.33,2.33,0,0,1,.15-.52,5.45,5.45,0,0,1-1.53-1.43,2.45,2.45,0,0,1,.18-2.59,3.94,3.94,0,0,1-.8-1.17A3.51,3.51,0,0,1,65.54,24a4.5,4.5,0,0,1,1.16-2.33c1.26-1.45,3.23-2.58,6.62-3.7a61.23,61.23,0,0,1,7.14-1.84c2.91-.68,6.4-.89,9.33-1.91-8.14-1.43-16.59-.13-23.48,4.61l.47-1.32m27.71-5a3.34,3.34,0,0,1-.83,1.18,26.22,26.22,0,0,1,2.63.88C96.19,13.78,95.27,13,94.48,12.51ZM69.41,28.76a14.65,14.65,0,0,1-1.32-.8c-.24.51.21,1.08.68,1.35C69,29.11,69.21,28.95,69.41,28.76ZM96.84,18.13a11.67,11.67,0,0,1,1.62.86c.37-.7.14-1.16-.63-1.81A6.59,6.59,0,0,1,96.84,18.13ZM95.1,19.2a31.62,31.62,0,0,1-5.33,1.74c-2,.5-6.88,1.2-12.12,2.34-1.67.36-6.15,1.42-8.36,3.3a9.56,9.56,0,0,0,1.68,1,14,14,0,0,1,4-1.63,76.39,76.39,0,0,1,8.51-1.69A76.87,76.87,0,0,0,94.74,21.6a9.54,9.54,0,0,0,2.55-1.33A8.91,8.91,0,0,0,95.1,19.2ZM72.46,31.71A11,11,0,0,1,74,30.94c-.84-.35-1.7-.73-2.57-1.13a6.38,6.38,0,0,0-1,.77C71.12,31,71.78,31.35,72.46,31.71ZM69.7,32c0,.54.31,1,1,1.6a2.35,2.35,0,0,1,.43-.78C70.66,32.55,70.17,32.27,69.7,32ZM73.76,22c5.89-1.72,12.07-2.26,18.33-3.92a14.29,14.29,0,0,0-6.37-.64A71.49,71.49,0,0,0,74.3,19.79c-1.38.42-8.68,2.48-6.58,5.37C67.73,25.2,69,23.45,73.76,22Zm22.09-6a23.54,23.54,0,0,0-3.43-1.2A8,8,0,0,1,90.24,16a36.85,36.85,0,0,1,4.12,1.1C94.59,17.27,95.68,16.26,95.85,16Zm2.9,5.67c-.18.16-.37.3-.59.47a18.56,18.56,0,0,1-6.36,2.63c-6.06,1.63-10.46,1.87-15.47,3.09a21,21,0,0,0-2.94,1c.94.47,1.95.91,3,1.3a43.63,43.63,0,0,1,6-1.34c1.12-.19,4.58-.79,7.07-1.32C93.9,26.5,100.51,24.42,98.75,21.68Z"/><path class="cls-3" d="M9.49,81.47h5l.6-3.65H18.5l.6,3.65h5l-4.2-21.13H13.69L9.49,81.47m7.29-14.75.93,6.45H15.85Z"/><path class="cls-3" d="M28.76,68.53A2.16,2.16,0,0,0,31,66.46a2,2,0,0,0-2.16-2,6.54,6.54,0,0,0-2.7.6l0-4.57A15.62,15.62,0,0,1,30.4,60a5.4,5.4,0,0,1,5.81,5.54,5.14,5.14,0,0,1-3,4.92v.21a4.9,4.9,0,0,1,3.36,5.07c0,4-2.79,6.18-6.34,6.18a8.66,8.66,0,0,1-4.64-1.1l.08-4.39a7.33,7.33,0,0,0,3.25.64,2,2,0,0,0,2.21-2c0-1.19-.75-2-2.42-2h-2V68.53h2.09"/><polyline class="cls-3" points="38.83 60.34 52.2 60.34 52.2 81.47 47.3 81.47 47.3 65.43 43.73 65.43 43.73 81.47 38.83 81.47 38.83 60.34"/><path class="cls-3" d="M55,81.47h4.91v-7h1.64c4.86,0,6.35-4.36,6.35-7.13s-1.71-7-6.35-7H55V81.47M59.91,65h1.16c1.12,0,1.81.66,1.81,2.42,0,2.29-1.18,2.45-1.81,2.45H59.91Z"/><path class="cls-3" d="M77,81.73c5.81,0,7.78-5.43,7.78-10.85S82.8,60,77,60s-7.77,5.42-7.77,10.85,2,10.85,7.77,10.85m0-5.11c-1.72,0-2.62-2-2.62-5.74s.9-5.74,2.62-5.74,2.62,2,2.62,5.74S78.72,76.62,77,76.62Z"/><path class="cls-3" d="M106.12,81.47H112c1.27,0,6.57-.53,6.58-6.92,0-5.41-4.11-6.34-6.77-6.34h-.87v-2.8h6.49V60.34H106.12V81.47m4.8-4.23V72.44h.71c.57,0,2.12,0,2.12,2.2s-1.55,2.6-2.12,2.6Z"/><polyline class="cls-3" points="136.21 60.34 141.01 60.34 141.01 67.95 144.44 67.95 144.44 60.34 149.23 60.34 149.23 81.47 144.44 81.47 144.44 73.02 141.01 73.02 141.01 81.47 136.21 81.47 136.21 60.34"/><polyline class="cls-3" points="152.45 60.34 157.25 60.34 157.25 67.94 158.29 67.94 161.04 60.34 166.25 60.34 162.51 70.37 166.78 81.47 161.14 81.47 158.38 72.97 157.25 72.97 157.25 81.47 152.45 81.47 152.45 60.34"/><polyline class="cls-3" points="0 60.34 10.05 60.34 10.06 65.61 4.99 65.61 4.99 81.48 0 81.47 0 60.34"/><polyline class="cls-3" points="87.12 60.34 91.28 60.34 94.96 65.32 98.66 60.34 102.81 60.34 102.81 81.47 97.92 81.47 97.92 68.58 94.96 72.28 92.02 68.58 92.02 81.48 87.12 81.47 87.12 60.34"/><path class="cls-3" d="M119.52,81.51h5l.6-3.65h3.42l.61,3.65h5l-4.2-21.13h-6.18l-4.2,21.13m7.29-14.75.93,6.44h-1.86Z"/></g></g></svg>