<svg id="Слой_2" data-name="Слой 2" xmlns="http://www.w3.org/2000/svg" viewBox="0 0 81.27 104.61"><defs><style>.cls-1{fill:#333;}</style></defs><title>PDF</title><path class="cls-1" d="M394.5,418.84a.24.24,0,0,1,.24.24V517.2a.24.24,0,0,1-.24.24H319.71a.24.24,0,0,1-.24-.24V419.08a.24.24,0,0,1,.24-.24H394.5m0-3H319.71a3.24,3.24,0,0,0-3.24,3.24V517.2a3.24,3.24,0,0,0,3.24,3.24H394.5a3.24,3.24,0,0,0,3.24-3.24V419.08a3.24,3.24,0,0,0-3.24-3.24Z" transform="translate(-316.47 -415.84)"/><rect class="cls-1" x="13.83" y="23.14" width="54.03" height="3"/><rect class="cls-1" x="13.83" y="36.97" width="54.03" height="3"/><rect class="cls-1" x="13.62" y="50.8" width="54.03" height="3"/><path class="cls-1" d="M337.38,497.24v7h-3.29V485.32h7.25a7.33,7.33,0,0,1,5,1.65,5.56,5.56,0,0,1,1.87,4.38,5.38,5.38,0,0,1-1.83,4.34,7.68,7.68,0,0,1-5.12,1.55Zm0-2.65h4a3.89,3.89,0,0,0,2.68-.83,3,3,0,0,0,.92-2.39,3.27,3.27,0,0,0-.94-2.45,3.61,3.61,0,0,0-2.58-.94h-4Z" transform="translate(-316.47 -415.84)"/><path class="cls-1" d="M351.12,504.26V485.32h5.59a8.77,8.77,0,0,1,4.45,1.12,7.63,7.63,0,0,1,3,3.17,10.08,10.08,0,0,1,1.07,4.71v.95a10,10,0,0,1-1.07,4.73,7.53,7.53,0,0,1-3.06,3.15,9.17,9.17,0,0,1-4.55,1.11ZM354.41,488v13.66h2.15a4.94,4.94,0,0,0,4-1.62,7.06,7.06,0,0,0,1.41-4.65v-1.05a7.24,7.24,0,0,0-1.34-4.71,4.75,4.75,0,0,0-3.89-1.63Z" transform="translate(-316.47 -415.84)"/><path class="cls-1" d="M379.43,496.23h-7.62v8h-3.29V485.32h12V488h-8.74v5.63h7.62Z" transform="translate(-316.47 -415.84)"/></svg>