<svg id="Capa_1" data-name="Capa 1" xmlns="http://www.w3.org/2000/svg" viewBox="0 0 520.16 414.27"><defs><style>.cls-1{fill:#a8a8a8;}</style></defs><title>paper-plane</title><path class="cls-1" d="M611.79,256a14.76,14.76,0,0,0-9.34-13.66L111.77,50.73a14.93,14.93,0,0,0-15.28,2.78,14.65,14.65,0,0,0-4.32,14.82l51.48,186.41L94.1,445.54a14.85,14.85,0,0,0,3.78,14.13l.62.62A14.77,14.77,0,0,0,113.7,463l488.83-193.2A14.57,14.57,0,0,0,611.79,256Zm-93.55-15-348-1.16L128.44,88.86ZM129.91,424.86,170.36,269.4l350,1.16Z" transform="translate(-91.64 -49.74)"/></svg>